# xmcd CD database file
#
# Track frame offsets:
#	150
#	22903
#	41845
#	59267
#	81258
#	101110
#	118348
#	136873
#	157875
#	175689
#
# Disc length: 2599 seconds
#
# Revision: 0
# Processed by: cddbd v1.5.1PL0 Copyright (c) Steve Scherf et al.
# Submitted via: CDex 1.51
#
DISCID=7d0a250a
DTITLE=doll - doll 〜歌姫 vol.5 響
DYEAR=2005
DGENRE=Japanese Pop
TTITLE0=笑わない娘
TTITLE1=向日葵
TTITLE2=トキメキはいつも
TTITLE3=何かが変わる時
TTITLE4=believe
TTITLE5=同じ空の下で☆
TTITLE6=人魚
TTITLE7=So・So・So 〜恋 Cocoro〜
TTITLE8=翼
TTITLE9=Sad Vibration
EXTD=YEAR: 2005
EXTT0=
EXTT1=
EXTT2=
EXTT3=
EXTT4=
EXTT5=
EXTT6=
EXTT7=
EXTT8=
EXTT9=
PLAYORDER=
